<svg version="1.1" xmlns="http://www.w3.org/2000/svg" viewBox="0 0 512 512">
  <path fill="currentColor" d="M64.3,382.9h52v31.2H32V311.6h32.3V382.9z M64.3,190.5H32v77.6h32.3V190.5z M422.7,190.5v77.6h32.3v-77.6H422.7z
	 M162.1,414.1h58.4v-31.2h-58.4V414.1z M32,147h32.3V75.6h52V44.4H32V147z M454.7,147V44.4h-84.4v31.2h52V147H454.7z M162.1,75.6
	h58.4V44.4h-58.4V75.6z M266.2,75.6h58.4V44.4h-58.4V75.6z M461.1,358.9c10.4,0,18.9,8,18.9,18.1c0,10-8.6,18.2-18.9,18.2h-55.9
	v54.3c0,10-8.4,18.1-18.9,18.1c-10.5,0-19-8.2-19-18.1v-54.3h-55.9c-10.4,0-18.9-8-18.9-18.1c0-10,8.6-18.2,18.9-18.2h55.9v-54.3
	c0-10,8.4-18.1,19-18.1c10.5,0,19,8.2,19,18.1v54.3H461.1L461.1,358.9z" />
</svg>