<svg version="1.1" xmlns="http://www.w3.org/2000/svg" viewBox="0 0 512 512">
  <path fill="currentColor" d="M256,32C132,32,32,132,32,256s100,224,224,224s224-100,224-224S380,32,256,32z M256,442.6
	c-103.4,0-186.6-83.2-186.6-186.6S152.6,69.4,256,69.4S442.6,152.6,442.6,256S359.4,442.6,256,442.6z M247.2,201.6
	c-14.4,3.2-28,10.4-38.4,20.8c-12,11.2,0.8,22.4,8,13.6c4.8-6.4,12-11.2,20-14.4c5.6-0.8,8.8,0.8,9.6,4.8c0.8,7.2,0,13.6-2.4,20.8
	c-2.4,9.6-7.2,25.6-12.8,47.2c-11.2,38.4-16.8,62.4-15.2,70.4c1.6,8.8,6.4,16,14.4,20.8c8.8,4,19.2,4.8,28.8,2.4
	c15.2-3.2,28.8-11.2,40-22.4c12.8-12.8-1.6-21.6-8.8-14.4c-4.8,6.4-12,11.2-20,12.8c-7.2,1.6-11.2-1.6-12.8-8
	c-0.8-7.2,0.8-14.4,3.2-20.8c20-68,28.8-106.4,26.4-116c-1.6-7.2-6.4-13.6-12.8-16.8C266.4,199.2,256,199.2,247.2,201.6z M256,152
	c0,13.2,10.8,24,24,24c13.2,0,24-10.8,24-24s-10.8-24-24-24C266.8,128,256,138.8,256,152z" />
</svg>